<?xml version="1.0" encoding="UTF-8"?>
<svg xmlns="http://www.w3.org/2000/svg" viewBox="0 0 1024 1024" width="22" height="22">
  <path d="M213.333333 571.093333v118.144A249.429333 249.429333 0 0 0 462.762667 938.666667h105.045333a249.429333 249.429333 0 0 0 249.429333-249.429334v-118.186666H213.333333z" fill="#000000"/>
  <path d="M462.762667 354.474667V262.570667a59.093333 59.093333 0 1 1 118.186666 0v91.904a59.093333 59.093333 0 1 1-118.186666 0z" fill="#000000"/>
  <path d="M213.333333 544.853333h295.381334v-105.984q-26.965333-3.84-47.189334-24.064-25.002667-25.002667-25.002666-60.330666V262.570667q0-35.370667 25.002666-60.330667 20.224-20.224 47.189334-24.106667V85.333333h-45.952A249.429333 249.429333 0 0 0 213.333333 334.762667v210.048z" fill="#000000"/>
  <path d="M534.997333 544.853333h282.24V334.72A249.429333 249.429333 0 0 0 567.808 85.333333h-32.853333v92.8q27.008 3.84 47.232 24.106667 25.002667 24.96 25.002666 60.330667v91.904q0 35.328-25.002666 60.330666-20.224 20.224-47.189334 24.064v105.941334z" fill="#000000"/>
</svg>
